<?xml version="1.0" encoding="UTF-8" standalone="no"?>
<svg
   width="8.5in"
   height="11in"
   viewBox="0 0 816 1056"
   version="1.1"
   id="svg98"
   sodipodi:docname="Pattern.svg"
   inkscape:version="1.2.2 (732a01da63, 2022-12-09)"
   xmlns:inkscape="http://www.inkscape.org/namespaces/inkscape"
   xmlns:sodipodi="http://sodipodi.sourceforge.net/DTD/sodipodi-0.dtd"
   xmlns="http://www.w3.org/2000/svg"
   xmlns:svg="http://www.w3.org/2000/svg">
  <defs
     id="defs102">
    <inkscape:path-effect
       effect="fill_between_many"
       method="originald"
       linkedpaths="#path96,0,1|#path94,0,1|#path92,0,1|#path90,0,1|#path88,0,1|#path86,0,1|#path84,0,1|#path82,0,1|#path80,0,1|#path78,0,1|#path76,0,1|#path74,0,1|#path72,0,1|#path70,0,1|#path68,0,1|#path66,0,1|#path64,0,1|#path62,0,1|#path60,0,1|#path58,0,1|#path56,0,1|#path54,0,1|#path52,0,1|#path50,0,1|#path48,0,1|#path46,0,1|#path44,0,1|#path42,0,1|#path40,0,1|#path38,0,1|#path36,0,1|#path34,0,1|#path32,0,1|#path30,0,1|#path28,0,1|#path26,0,1|#path24,0,1|#path22,0,1|#path20,0,1|#path18,0,1|#path16,0,1|#path14,0,1|#path12,0,1|#path10,0,1|#path8,0,1|#path6,0,1|#path4,0,1|#path2,0,1"
       id="path-effect885" />
  </defs>
  <sodipodi:namedview
     id="namedview100"
     pagecolor="#ffffff"
     bordercolor="#000000"
     borderopacity="0.25"
     inkscape:showpageshadow="2"
     inkscape:pageopacity="0.0"
     inkscape:pagecheckerboard="0"
     inkscape:deskcolor="#d1d1d1"
     showgrid="false"
     inkscape:document-units="mm"
     inkscape:zoom="0.82094039"
     inkscape:cx="414.15918"
     inkscape:cy="437.91243"
     inkscape:window-width="1920"
     inkscape:window-height="1001"
     inkscape:window-x="-9"
     inkscape:window-y="-9"
     inkscape:window-maximized="1"
     inkscape:current-layer="svg98" />
  <path
     d="m 158.1498,68.51374 a 141.73228,141.73228 0 0 0 -57.30792,33.08674 L 80.514351,93.02426 a 7.5590551,7.5590551 0 0 0 -9.48471,3.18504 l -5.55964,9.62959 a 26.725296,26.725296 0 0 1 -18.89764,32.73167 l -5.55964,9.62959 a 7.5590551,7.5590551 0 0 0 1.98402,9.80651 l 17.59099,13.31605 a 141.73228,141.73228 0 0 0 0,66.17348 l -17.59099,13.31605 a 7.5590551,7.5590551 0 0 0 -1.98402,9.80651 l 5.55964,9.62959 a 26.725296,26.725296 0 0 1 18.89764,32.73167 l 5.55964,9.62959 a 7.5590551,7.5590551 0 0 0 9.48471,3.18504 l 20.327529,-8.57622 a 141.73228,141.73228 0 0 0 57.30792,33.08674 l 2.73653,21.89227 a 7.5590551,7.5590551 0 0 0 7.50068,6.62147 h 11.11929 a 26.725296,26.725296 0 0 1 37.79528,0 h 11.11929 a 7.5590551,7.5590551 0 0 0 7.50068,-6.62147 l 2.73653,-21.89227 a 141.73228,141.73228 0 0 0 57.30793,-33.08674 l 20.32752,8.57622 a 7.5590551,7.5590551 0 0 0 9.48471,-3.18504 l 5.55964,-9.62959 a 26.725296,26.725296 0 0 1 18.89764,-32.73167 l 5.55964,-9.62959 a 7.5590551,7.5590551 0 0 0 -1.98402,-9.80651 l -17.59099,-13.31605 a 141.73228,141.73228 0 0 0 0,-66.17348 l 17.59099,-13.31605 a 7.5590551,7.5590551 0 0 0 1.98402,-9.80651 l -5.55964,-9.62959 a 26.725296,26.725296 0 0 1 -18.89764,-32.73167 l -5.55964,-9.62959 a 7.5590551,7.5590551 0 0 0 -9.48471,-3.18504 l -20.32752,8.57622 A 141.73228,141.73228 0 0 0 238.65808,68.51374 L 235.92155,46.62147 A 7.5590551,7.5590551 0 0 0 228.42087,40 h -11.11929 a 26.725296,26.725296 0 0 1 -37.79528,0 h -11.11929 a 7.5590551,7.5590551 0 0 0 -7.50068,6.62147 z"
     id="path887" />
  <path
     d="M 526.43507,71.772453 A 157.93025,157.93025 0 0 0 462.57768,108.64053 L 439.927,99.084175 a 8.4229471,8.4229471 0 0 0 -10.56868,3.549045 l -6.19502,10.73011 a 29.779616,29.779616 0 0 1 -21.05737,36.47244 l -6.19503,10.73011 a 8.4229471,8.4229471 0 0 0 2.21076,10.92726 l 19.60139,14.83788 a 157.93025,157.93025 0 0 0 0,73.73616 l -19.60139,14.83789 a 8.4229471,8.4229471 0 0 0 -2.21076,10.92725 l 6.19503,10.73012 a 29.779616,29.779616 0 0 1 21.05737,36.47243 l 6.19502,10.73011 a 8.4229471,8.4229471 0 0 0 10.56868,3.54905 l 22.65068,-9.55636 a 157.93025,157.93025 0 0 0 63.85739,36.86808 l 3.04928,24.39424 a 8.4229471,8.4229471 0 0 0 8.3579,7.37821 h 12.39007 a 29.779616,29.779616 0 0 1 42.11474,0 h 12.39006 a 8.4229471,8.4229471 0 0 0 8.3579,-7.37821 l 3.04928,-24.39424 a 157.93025,157.93025 0 0 0 63.85741,-36.86808 l 22.65066,9.55636 a 8.4229471,8.4229471 0 0 0 10.56868,-3.54905 l 6.19503,-10.73011 a 29.779616,29.779616 0 0 1 21.05737,-36.47243 l 6.19503,-10.73012 a 8.4229471,8.4229471 0 0 0 -2.21077,-10.92725 l -19.60139,-14.83789 a 157.93025,157.93025 0 0 0 0,-73.73616 l 19.60139,-14.83788 a 8.4229471,8.4229471 0 0 0 2.21077,-10.92726 l -6.19503,-10.73011 a 29.779616,29.779616 0 0 1 -21.05737,-36.47244 l -6.19503,-10.73011 a 8.4229471,8.4229471 0 0 0 -10.56868,-3.549045 l -22.65066,9.556355 A 157.93025,157.93025 0 0 0 616.1443,71.772453 L 613.09502,47.378209 A 8.4229471,8.4229471 0 0 0 604.73712,40 h -12.39006 a 29.779616,29.779616 0 0 1 -42.11474,0 h -12.39007 a 8.4229471,8.4229471 0 0 0 -8.3579,7.378209 z"
     id="path842"
     style="stroke-width:1.11429" />
  <circle
     style="opacity:1;fill:#000000"
     id="path2348"
     cx="198.40395"
     cy="584.40942"
     r="188.97638" />
</svg>
