<?xml version="1.0" encoding="utf-8"?>
<svg width="420.32444270577" height="443.50166621171" viewBox="0 0 420.32444270577 443.50166621171" xmlns="http://www.w3.org/2000/svg">
  <path stroke-width="0.05291666667" fill="none" stroke="black" stroke-linecap="round" d="M 104.82758307159 115.00160027621 L 168.90296400192 143.0751339123" />
  <path stroke-width="0.05291666667" fill="none" stroke="black" stroke-linecap="round" d="M 174.51469444829 141.23333577848 A 4.42799196946 4.42799196946 0 0 1 168.90296400192 143.0751339123" />
  <path stroke-width="0.05291666667" fill="none" stroke="black" stroke-linecap="round" d="M 174.51469444829 141.23333577848 L 185.17447667355 122.77005136671" />
  <path stroke-width="0.05291666667" fill="none" stroke="black" stroke-linecap="round" d="M 185.17447667355 122.77005136671 A 15.11811023622 15.11811023622 0 0 1 172.29272548728 102.74641831994" />
  <path stroke-width="0.05291666667" fill="none" stroke="black" stroke-linecap="round" d="M 175.12737115657 97.83666799927 A 15.11811023622 15.11811023622 0 0 1 198.90922164426 98.98077524842" />
  <path stroke-width="0.05291666667" fill="none" stroke="black" stroke-linecap="round" d="M 198.90922164426 98.98077524842 L 209.56900386952 80.51749083666" />
  <path stroke-width="0.05291666667" fill="none" stroke="black" stroke-linecap="round" d="M 208.35818261887 74.73669064401 A 4.42799196946 4.42799196946 0 0 1 209.56900386952 80.51749083666" />
  <path stroke-width="0.05291666667" fill="none" stroke="black" stroke-linecap="round" d="M 208.35818261887 74.73669064401 L 152.00809885086 33.28254981922" />
  <path stroke-width="0.05291666667" fill="none" stroke="black" stroke-linecap="round" d="M 152.00809885086 -33.28254981922 L 208.35818261887 -74.73669064401" />
  <path stroke-width="0.05291666667" fill="none" stroke="black" stroke-linecap="round" d="M 209.56900386952 -80.51749083666 A 4.42799196946 4.42799196946 0 0 1 208.35818261887 -74.73669064401" />
  <path stroke-width="0.05291666667" fill="none" stroke="black" stroke-linecap="round" d="M 209.56900386952 -80.51749083666 L 198.90922164426 -98.98077524843" />
  <path stroke-width="0.05291666667" fill="none" stroke="black" stroke-linecap="round" d="M 198.90922164426 -98.98077524843 A 15.11811023622 15.11811023622 0 0 1 175.12737115657 -97.83666799927" />
  <path stroke-width="0.05291666667" fill="none" stroke="black" stroke-linecap="round" d="M 172.29272548728 -102.74641831994 A 15.11811023622 15.11811023622 0 0 1 185.17447667354 -122.77005136671" />
  <path stroke-width="0.05291666667" fill="none" stroke="black" stroke-linecap="round" d="M 185.17447667354 -122.77005136671 L 174.51469444829 -141.23333577848" />
  <path stroke-width="0.05291666667" fill="none" stroke="black" stroke-linecap="round" d="M 168.90296400193 -143.0751339123 A 4.42799196946 4.42799196946 0 0 1 174.51469444829 -141.23333577848" />
  <path stroke-width="0.05291666667" fill="none" stroke="black" stroke-linecap="round" d="M 168.90296400193 -143.0751339123 L 104.82758307159 -115.00160027621" />
  <path stroke-width="0.05291666667" fill="none" stroke="black" stroke-linecap="round" d="M 47.18051577927 -148.28415009543 L 39.45521861695 -217.81182455631" />
  <path stroke-width="0.05291666667" fill="none" stroke="black" stroke-linecap="round" d="M 35.05430942123 -221.75082661513 A 4.42799196946 4.42799196946 0 0 1 39.45521861695 -217.81182455631" />
  <path stroke-width="0.05291666667" fill="none" stroke="black" stroke-linecap="round" d="M 35.05430942123 -221.75082661513 L 13.73474497072 -221.75082661513" />
  <path stroke-width="0.05291666667" fill="none" stroke="black" stroke-linecap="round" d="M 13.73474497072 -221.75082661513 A 15.11811023622 15.11811023622 0 0 1 2.83464566929 -200.58308631921" />
  <path stroke-width="0.05291666667" fill="none" stroke="black" stroke-linecap="round" d="M -2.83464566929 -200.58308631921 A 15.11811023622 15.11811023622 0 0 1 -13.73474497072 -221.75082661513" />
  <path stroke-width="0.05291666667" fill="none" stroke="black" stroke-linecap="round" d="M -13.73474497072 -221.75082661513 L -35.05430942123 -221.75082661513" />
  <path stroke-width="0.05291666667" fill="none" stroke="black" stroke-linecap="round" d="M -39.45521861695 -217.8118245563 A 4.42799196946 4.42799196946 0 0 1 -35.05430942123 -221.75082661513" />
  <path stroke-width="0.05291666667" fill="none" stroke="black" stroke-linecap="round" d="M -39.45521861695 -217.8118245563 L -47.18051577927 -148.28415009543" />
  <path stroke-width="0.05291666667" fill="none" stroke="black" stroke-linecap="round" d="M -104.82758307159 -115.00160027621 L -168.90296400192 -143.0751339123" />
  <path stroke-width="0.05291666667" fill="none" stroke="black" stroke-linecap="round" d="M -174.51469444829 -141.23333577848 A 4.42799196946 4.42799196946 0 0 1 -168.90296400192 -143.0751339123" />
  <path stroke-width="0.05291666667" fill="none" stroke="black" stroke-linecap="round" d="M -174.51469444829 -141.23333577848 L -185.17447667355 -122.77005136671" />
  <path stroke-width="0.05291666667" fill="none" stroke="black" stroke-linecap="round" d="M -185.17447667355 -122.77005136671 A 15.11811023622 15.11811023622 0 0 1 -172.29272548728 -102.74641831994" />
  <path stroke-width="0.05291666667" fill="none" stroke="black" stroke-linecap="round" d="M -175.12737115657 -97.83666799927 A 15.11811023622 15.11811023622 0 0 1 -198.90922164426 -98.98077524843" />
  <path stroke-width="0.05291666667" fill="none" stroke="black" stroke-linecap="round" d="M -198.90922164426 -98.98077524843 L -209.56900386952 -80.51749083666" />
  <path stroke-width="0.05291666667" fill="none" stroke="black" stroke-linecap="round" d="M -208.35818261887 -74.73669064401 A 4.42799196946 4.42799196946 0 0 1 -209.56900386952 -80.51749083666" />
  <path stroke-width="0.05291666667" fill="none" stroke="black" stroke-linecap="round" d="M -208.35818261887 -74.73669064401 L -152.00809885086 -33.28254981922" />
  <path stroke-width="0.05291666667" fill="none" stroke="black" stroke-linecap="round" d="M -152.00809885086 33.28254981922 L -208.35818261887 74.73669064401" />
  <path stroke-width="0.05291666667" fill="none" stroke="black" stroke-linecap="round" d="M -209.56900386952 80.51749083666 A 4.42799196946 4.42799196946 0 0 1 -208.35818261887 74.73669064401" />
  <path stroke-width="0.05291666667" fill="none" stroke="black" stroke-linecap="round" d="M -209.56900386952 80.51749083666 L -198.90922164426 98.98077524843" />
  <path stroke-width="0.05291666667" fill="none" stroke="black" stroke-linecap="round" d="M -198.90922164426 98.98077524843 A 15.11811023622 15.11811023622 0 0 1 -175.12737115657 97.83666799927" />
  <path stroke-width="0.05291666667" fill="none" stroke="black" stroke-linecap="round" d="M -172.29272548728 102.74641831994 A 15.11811023622 15.11811023622 0 0 1 -185.17447667355 122.77005136671" />
  <path stroke-width="0.05291666667" fill="none" stroke="black" stroke-linecap="round" d="M -185.17447667355 122.77005136671 L -174.51469444829 141.23333577848" />
  <path stroke-width="0.05291666667" fill="none" stroke="black" stroke-linecap="round" d="M -168.90296400192 143.0751339123 A 4.42799196946 4.42799196946 0 0 1 -174.51469444829 141.23333577848" />
  <path stroke-width="0.05291666667" fill="none" stroke="black" stroke-linecap="round" d="M -168.90296400192 143.0751339123 L -104.82758307159 115.00160027621" />
  <path stroke-width="0.05291666667" fill="none" stroke="black" stroke-linecap="round" d="M -47.18051577927 148.28415009543 L -39.45521861695 217.8118245563" />
  <path stroke-width="0.05291666667" fill="none" stroke="black" stroke-linecap="round" d="M -35.05430942123 221.75082661513 A 4.42799196946 4.42799196946 0 0 1 -39.45521861695 217.8118245563" />
  <path stroke-width="0.05291666667" fill="none" stroke="black" stroke-linecap="round" d="M -35.05430942123 221.75082661513 L -13.73474497071 221.75082661513" />
  <path stroke-width="0.05291666667" fill="none" stroke="black" stroke-linecap="round" d="M -13.73474497071 221.75082661513 A 15.11811023622 15.11811023622 0 0 1 -2.83464566929 200.58308631921" />
  <path stroke-width="0.05291666667" fill="none" stroke="black" stroke-linecap="round" d="M 2.83464566929 200.58308631921 A 15.11811023622 15.11811023622 0 0 1 13.73474497072 221.75082661513" />
  <path stroke-width="0.05291666667" fill="none" stroke="black" stroke-linecap="round" d="M 13.73474497072 221.75082661513 L 35.05430942123 221.75082661513" />
  <path stroke-width="0.05291666667" fill="none" stroke="black" stroke-linecap="round" d="M 39.45521861695 217.8118245563 A 4.42799196946 4.42799196946 0 0 1 35.05430942123 221.75082661513" />
  <path stroke-width="0.05291666667" fill="none" stroke="black" stroke-linecap="round" d="M 39.45521861695 217.8118245563 L 47.18051577927 148.28415009543" />
  <circle stroke-width="0.05291666667" fill="none" stroke="black" stroke-linecap="round" cx="0.0" cy="0.0" r="74.64566929134" />
  <path stroke-width="0.05291666667" fill="none" stroke="black" stroke-linecap="round" d="M -47.18051577927 148.28415009543 A 155.60909433167 155.60909433167 0 0 1 -104.82758307159 115.00160027621" />
  <path stroke-width="0.05291666667" fill="none" stroke="black" stroke-linecap="round" d="M 47.18051577927 148.28415009543 A 155.60909433167 155.60909433167 0 0 0 104.82758307159 115.00160027621" />
  <path stroke-width="0.05291666667" fill="none" stroke="black" stroke-linecap="round" d="M -152.00809885086 33.28254981922 A 155.60909433167 155.60909433167 0 0 1 -152.00809885086 -33.28254981922" />
  <path stroke-width="0.05291666667" fill="none" stroke="black" stroke-linecap="round" d="M 152.00809885086 33.28254981922 A 155.60909433167 155.60909433167 0 0 0 152.00809885086 -33.28254981922" />
  <path stroke-width="0.05291666667" fill="none" stroke="black" stroke-linecap="round" d="M -47.18051577927 -148.28415009543 A 155.60909433167 155.60909433167 0 0 0 -104.82758307159 -115.00160027621" />
  <path stroke-width="0.05291666667" fill="none" stroke="black" stroke-linecap="round" d="M 104.82758307159 -115.00160027621 A 155.60909433167 155.60909433167 0 0 0 47.18051577927 -148.28415009543" />
  <path stroke-width="0.05291666667" fill="none" stroke="black" stroke-linecap="round" d="M -2.83464566929 -200.58308631921 L 2.83464566929 -200.58308631921" />
  <path stroke-width="0.05291666667" fill="none" stroke="black" stroke-linecap="round" d="M 172.29272548728 -102.74641831994 L 175.12737115657 -97.83666799927" />
  <path stroke-width="0.05291666667" fill="none" stroke="black" stroke-linecap="round" d="M 175.12737115657 97.83666799927 L 172.29272548728 102.74641831994" />
  <path stroke-width="0.05291666667" fill="none" stroke="black" stroke-linecap="round" d="M 2.83464566929 200.58308631921 L -2.83464566929 200.58308631921" />
  <path stroke-width="0.05291666667" fill="none" stroke="black" stroke-linecap="round" d="M -172.29272548728 102.74641831994 L -175.12737115657 97.83666799927" />
  <path stroke-width="0.05291666667" fill="none" stroke="black" stroke-linecap="round" d="M -175.12737115657 -97.83666799927 L -172.29272548728 -102.74641831994" />
</svg>