<?xml version="1.0" encoding="utf-8"?>
<svg width="316.80789256659" height="478.11022180272" viewBox="0 0 316.80789256659 478.11022180272" xmlns="http://www.w3.org/2000/svg">
  <path stroke-width="0.05291666667" fill="none" stroke="black" stroke-linecap="round" d="M 40.25414334386 -135.89571045376 L 37.51760976357 -157.78797909611" />
  <path stroke-width="0.05291666667" fill="none" stroke="black" stroke-linecap="round" d="M -37.51760976357 -157.78797909611 A 7.55905511811 7.55905511811 0 0 1 -30.01692660101 -164.4094488189" />
  <path stroke-width="0.05291666667" fill="none" stroke="black" stroke-linecap="round" d="M 30.01692660101 -164.4094488189 A 7.55905511811 7.55905511811 0 0 1 37.51760976357 -157.78797909611" />
  <path stroke-width="0.05291666667" fill="none" stroke="black" stroke-linecap="round" d="M -18.89763779528 -164.4094488189 A 26.72529566689 26.72529566689 0 0 0 18.89763779528 -164.4094488189" />
  <path stroke-width="0.05291666667" fill="none" stroke="black" stroke-linecap="round" d="M 18.89763779528 -164.4094488189 L 30.01692660101 -164.4094488189" />
  <path stroke-width="0.05291666667" fill="none" stroke="black" stroke-linecap="round" d="M -30.01692660101 -164.4094488189 L -18.89763779528 -164.4094488189" />
  <path stroke-width="0.05291666667" fill="none" stroke="black" stroke-linecap="round" d="M -40.25414334386 -135.89571045376 L -37.51760976357 -157.78797909611" />
  <path stroke-width="0.05291666667" fill="none" stroke="black" stroke-linecap="round" d="M -137.81620919022 -33.08674448351 L -155.40720319082 -46.40278640353" />
  <path stroke-width="0.05291666667" fill="none" stroke="black" stroke-linecap="round" d="M -155.40720319082 -46.40278640353 A 7.55905511811 7.55905511811 0 0 1 -157.39122259987 -56.20930342944" />
  <path stroke-width="0.05291666667" fill="none" stroke="black" stroke-linecap="round" d="M -157.39122259987 -56.20930342944 L -151.831578197 -65.83889000722" />
  <path stroke-width="0.05291666667" fill="none" stroke="black" stroke-linecap="round" d="M -151.831578197 -65.83889000722 A 26.72529566689 26.72529566689 0 0 0 -132.93394040173 -98.57055881167" />
  <path stroke-width="0.05291666667" fill="none" stroke="black" stroke-linecap="round" d="M -132.93394040173 -98.57055881167 L -127.37429599886 -108.20014538946" />
  <path stroke-width="0.05291666667" fill="none" stroke="black" stroke-linecap="round" d="M -127.37429599886 -108.20014538946 A 7.55905511811 7.55905511811 0 0 1 -117.88959342725 -111.38519269258" />
  <path stroke-width="0.05291666667" fill="none" stroke="black" stroke-linecap="round" d="M -97.56206584636 -102.80896597025 L -117.88959342725 -111.38519269258" />
  <path stroke-width="0.05291666667" fill="none" stroke="black" stroke-linecap="round" d="M -97.56206584636 102.80896597025 L -117.88959342725 111.38519269258" />
  <path stroke-width="0.05291666667" fill="none" stroke="black" stroke-linecap="round" d="M -117.88959342725 111.38519269258 A 7.55905511811 7.55905511811 0 0 1 -127.37429599886 108.20014538946" />
  <path stroke-width="0.05291666667" fill="none" stroke="black" stroke-linecap="round" d="M -127.37429599886 108.20014538946 L -132.93394040173 98.57055881167" />
  <path stroke-width="0.05291666667" fill="none" stroke="black" stroke-linecap="round" d="M -132.93394040173 98.57055881167 A 26.72529566689 26.72529566689 0 0 0 -151.831578197 65.83889000722" />
  <path stroke-width="0.05291666667" fill="none" stroke="black" stroke-linecap="round" d="M -151.831578197 65.83889000722 L -157.39122259987 56.20930342944" />
  <path stroke-width="0.05291666667" fill="none" stroke="black" stroke-linecap="round" d="M -157.39122259987 56.20930342944 A 7.55905511811 7.55905511811 0 0 1 -155.40720319082 46.40278640353" />
  <path stroke-width="0.05291666667" fill="none" stroke="black" stroke-linecap="round" d="M -137.81620919022 33.08674448351 L -155.40720319082 46.40278640353" />
  <path stroke-width="0.05291666667" fill="none" stroke="black" stroke-linecap="round" d="M 40.25414334386 135.89571045376 L 37.51760976357 157.78797909611" />
  <path stroke-width="0.05291666667" fill="none" stroke="black" stroke-linecap="round" d="M 37.51760976357 157.78797909611 A 7.55905511811 7.55905511811 0 0 1 30.01692660101 164.4094488189" />
  <path stroke-width="0.05291666667" fill="none" stroke="black" stroke-linecap="round" d="M 30.01692660101 164.4094488189 L 18.89763779528 164.4094488189" />
  <path stroke-width="0.05291666667" fill="none" stroke="black" stroke-linecap="round" d="M 18.89763779528 164.4094488189 A 26.72529566689 26.72529566689 0 0 0 -18.89763779528 164.4094488189" />
  <path stroke-width="0.05291666667" fill="none" stroke="black" stroke-linecap="round" d="M -18.89763779528 164.4094488189 L -30.01692660101 164.4094488189" />
  <path stroke-width="0.05291666667" fill="none" stroke="black" stroke-linecap="round" d="M -30.01692660101 164.4094488189 A 7.55905511811 7.55905511811 0 0 1 -37.51760976357 157.78797909611" />
  <path stroke-width="0.05291666667" fill="none" stroke="black" stroke-linecap="round" d="M -40.25414334386 135.89571045376 L -37.51760976357 157.78797909611" />
  <path stroke-width="0.05291666667" fill="none" stroke="black" stroke-linecap="round" d="M 137.81620919022 33.08674448351 L 155.40720319082 46.40278640353" />
  <path stroke-width="0.05291666667" fill="none" stroke="black" stroke-linecap="round" d="M 155.40720319082 46.40278640353 A 7.55905511811 7.55905511811 0 0 1 157.39122259987 56.20930342944" />
  <path stroke-width="0.05291666667" fill="none" stroke="black" stroke-linecap="round" d="M 157.39122259987 56.20930342944 L 151.831578197 65.83889000722" />
  <path stroke-width="0.05291666667" fill="none" stroke="black" stroke-linecap="round" d="M 151.831578197 65.83889000722 A 26.72529566689 26.72529566689 0 0 0 132.93394040173 98.57055881167" />
  <path stroke-width="0.05291666667" fill="none" stroke="black" stroke-linecap="round" d="M 132.93394040173 98.57055881167 L 127.37429599886 108.20014538946" />
  <path stroke-width="0.05291666667" fill="none" stroke="black" stroke-linecap="round" d="M 127.37429599886 108.20014538946 A 7.55905511811 7.55905511811 0 0 1 117.88959342725 111.38519269258" />
  <path stroke-width="0.05291666667" fill="none" stroke="black" stroke-linecap="round" d="M 97.56206584636 102.80896597025 L 117.88959342725 111.38519269258" />
  <path stroke-width="0.05291666667" fill="none" stroke="black" stroke-linecap="round" d="M 97.56206584636 -102.80896597025 L 117.88959342725 -111.38519269258" />
  <path stroke-width="0.05291666667" fill="none" stroke="black" stroke-linecap="round" d="M 117.88959342725 -111.38519269258 A 7.55905511811 7.55905511811 0 0 1 127.37429599886 -108.20014538946" />
  <path stroke-width="0.05291666667" fill="none" stroke="black" stroke-linecap="round" d="M 127.37429599886 -108.20014538946 L 132.93394040173 -98.57055881167" />
  <path stroke-width="0.05291666667" fill="none" stroke="black" stroke-linecap="round" d="M 132.93394040173 -98.57055881167 A 26.72529566689 26.72529566689 0 0 0 151.831578197 -65.83889000722" />
  <path stroke-width="0.05291666667" fill="none" stroke="black" stroke-linecap="round" d="M 151.831578197 -65.83889000722 L 157.39122259987 -56.20930342944" />
  <path stroke-width="0.05291666667" fill="none" stroke="black" stroke-linecap="round" d="M 157.39122259987 -56.20930342944 A 7.55905511811 7.55905511811 0 0 1 155.40720319082 -46.40278640353" />
  <path stroke-width="0.05291666667" fill="none" stroke="black" stroke-linecap="round" d="M 137.81620919022 -33.08674448351 L 155.40720319082 -46.40278640353" />
  <path stroke-width="0.05291666667" fill="none" stroke="black" stroke-linecap="round" d="M 97.56206584636 -102.80896597025 A 141.73228346457 141.73228346457 0 0 0 40.25414334386 -135.89571045376" />
  <path stroke-width="0.05291666667" fill="none" stroke="black" stroke-linecap="round" d="M 137.81620919022 33.08674448351 A 141.73228346457 141.73228346457 0 0 0 137.81620919022 -33.08674448351" />
  <path stroke-width="0.05291666667" fill="none" stroke="black" stroke-linecap="round" d="M 40.25414334386 135.89571045376 A 141.73228346457 141.73228346457 0 0 0 97.56206584636 102.80896597025" />
  <path stroke-width="0.05291666667" fill="none" stroke="black" stroke-linecap="round" d="M -97.56206584636 102.80896597025 A 141.73228346457 141.73228346457 0 0 0 -40.25414334386 135.89571045376" />
  <path stroke-width="0.05291666667" fill="none" stroke="black" stroke-linecap="round" d="M -137.81620919022 -33.08674448351 A 141.73228346457 141.73228346457 0 0 0 -137.81620919022 33.08674448351" />
  <path stroke-width="0.05291666667" fill="none" stroke="black" stroke-linecap="round" d="M -40.25414334386 -135.89571045376 A 141.73228346457 141.73228346457 0 0 0 -97.56206584636 -102.80896597025" />
</svg>