<?xml version="1.0" encoding="UTF-8" standalone="no"?>
<!-- 2023-07-01 02:11:36 Generated by QCAD 3.27.1 SVG Exporter -->

<svg
   width="8.5in"
   height="11in"
   viewBox="-48.6531 -52.837 215.90001 279.39999"
   version="1.1"
   style="fill:none;stroke-linecap:round;stroke-linejoin:round"
   id="svg1241"
   sodipodi:docname="pattern-updated.svg"
   inkscape:version="1.2.2 (732a01da63, 2022-12-09)"
   xmlns:inkscape="http://www.inkscape.org/namespaces/inkscape"
   xmlns:sodipodi="http://sodipodi.sourceforge.net/DTD/sodipodi-0.dtd"
   xmlns="http://www.w3.org/2000/svg"
   xmlns:svg="http://www.w3.org/2000/svg">
  <defs
     id="defs1245" />
  <sodipodi:namedview
     id="namedview1243"
     pagecolor="#ffffff"
     bordercolor="#000000"
     borderopacity="0.25"
     inkscape:showpageshadow="2"
     inkscape:pageopacity="0.0"
     inkscape:pagecheckerboard="0"
     inkscape:deskcolor="#d1d1d1"
     inkscape:document-units="mm"
     showgrid="false"
     inkscape:zoom="1.0190341"
     inkscape:cx="146.21689"
     inkscape:cy="245.82101"
     inkscape:window-width="1920"
     inkscape:window-height="1001"
     inkscape:window-x="-9"
     inkscape:window-y="-9"
     inkscape:window-maximized="1"
     inkscape:current-layer="svg1241" />
  <g
     transform="matrix(1,0,0,-1,10.583333,10.583333)"
     id="g1239">
    <!-- Hatch -->
    <path
       d="M 8.346,41.2969 7.2607,51.0643 A 2,2 0 0 1 4.3369,52.6108 9.26667,9.26667 0 0 0 1.7375,51.6977 5,5 0 0 0 0.8,51.609 h -1.6 a 5,5 0 0 0 -0.9375,0.0887 9.26667,9.26667 0 0 0 -2.5994,0.9131 2,2 0 0 1 -2.9238,-1.5465 L -8.346,41.2969 a 5,5 0 0 0 -3.4534,-4.2125 38.9163,38.9163 0 0 1 -14.417,-8.3236 5,5 0 0 0 -5.3748,-0.8845 l -9.0014,3.9438 a 2,2 0 0 1 -2.8013,-1.7588 9.26667,9.26667 0 0 0 -0.5089,-2.7077 5,5 0 0 0 -0.3919,-0.8563 l -0.8,-1.3856 a 5,5 0 0 0 -0.5456,-0.7676 9.26667,9.26667 0 0 0 -2.0905,-1.7946 2,2 0 0 1 -0.1225,-3.3053 l 7.9161,-5.8236 a 5,5 0 0 0 1.9214,-5.097 38.9163,38.9163 0 0 1 0,-16.6472 5,5 0 0 0 -1.9214,-5.097 l -7.9161,-5.8236 a 2,2 0 0 1 0.1225,-3.3053 9.26667,9.26667 0 0 0 2.0905,-1.7946 5,5 0 0 0 0.5456,-0.7676 l 0.8,-1.3856 a 5,5 0 0 0 0.3919,-0.8563 9.26667,9.26667 0 0 0 0.5089,-2.7077 2,2 0 0 1 2.8013,-1.7588 l 9.0014,3.9438 a 5,5 0 0 0 5.3748,-0.8845 38.9163,38.9163 0 0 1 14.417,-8.3236 5,5 0 0 0 3.4534,-4.2125 l 1.0853,-9.7674 a 2,2 0 0 1 2.9238,-1.5465 9.26667,9.26667 0 0 0 2.5994,0.9131 5,5 0 0 0 0.9375,0.0887 h 1.6 a 5,5 0 0 0 0.9375,-0.0887 9.26667,9.26667 0 0 0 2.5994,-0.9131 2,2 0 0 1 2.9238,1.5465 l 1.0853,9.7674 a 5,5 0 0 0 3.4534,4.2125 38.9163,38.9163 0 0 1 14.417,8.3236 5,5 0 0 0 5.3748,0.8845 l 9.0014,-3.9438 a 2,2 0 0 1 2.8013,1.7588 9.26667,9.26667 0 0 0 0.5089,2.7077 5,5 0 0 0 0.3919,0.8563 l 0.8,1.3856 a 5,5 0 0 0 0.5456,0.7676 9.26667,9.26667 0 0 0 2.0905,1.7946 2,2 0 0 1 0.1225,3.3053 l -7.9161,5.8236 a 5,5 0 0 0 -1.9214,5.097 38.9163,38.9163 0 0 1 0,16.6472 5,5 0 0 0 1.9214,5.097 l 7.9161,5.8236 a 2,2 0 0 1 -0.1225,3.3053 9.26667,9.26667 0 0 0 -2.0905,1.7946 5,5 0 0 0 -0.5456,0.7676 l -0.8,1.3856 a 5,5 0 0 0 -0.3919,0.8563 9.26667,9.26667 0 0 0 -0.5089,2.7077 2,2 0 0 1 -2.8013,1.7588 l -9.0014,-3.9438 a 5,5 0 0 0 -5.3748,0.8845 38.9163,38.9163 0 0 1 -14.417,8.3236 5,5 0 0 0 -3.4534,4.2125"
       style="fill:#000000;fill-rule:evenodd"
       id="path1237" />
  </g>
</svg>
