<?xml version="1.0" encoding="UTF-8" standalone="no"?>
<!-- 2023-06-11 15:25:22 Generated by QCAD 3.27.1 SVG Exporter -->

<svg
   width="210mm"
   height="297mm"
   viewBox="-37.5037 -40.9026 210 297"
   version="1.1"
   style="fill:none;stroke-linecap:round;stroke-linejoin:round"
   id="svg6"
   sodipodi:docname="pattern.svg"
   inkscape:version="1.2.2 (732a01da63, 2022-12-09)"
   xmlns:inkscape="http://www.inkscape.org/namespaces/inkscape"
   xmlns:sodipodi="http://sodipodi.sourceforge.net/DTD/sodipodi-0.dtd"
   xmlns="http://www.w3.org/2000/svg"
   xmlns:svg="http://www.w3.org/2000/svg">
  <defs
     id="defs10" />
  <sodipodi:namedview
     id="namedview8"
     pagecolor="#ffffff"
     bordercolor="#000000"
     borderopacity="0.25"
     inkscape:showpageshadow="2"
     inkscape:pageopacity="0.0"
     inkscape:pagecheckerboard="0"
     inkscape:deskcolor="#d1d1d1"
     inkscape:document-units="mm"
     showgrid="false"
     inkscape:zoom="0.65818279"
     inkscape:cx="300.82829"
     inkscape:cy="529.48817"
     inkscape:window-width="1920"
     inkscape:window-height="1001"
     inkscape:window-x="-9"
     inkscape:window-y="-9"
     inkscape:window-maximized="1"
     inkscape:current-layer="svg6" />
  <path
     d="m 18.9572,-24.952199 a 11.3333,11.3333 0 0 1 -1.3822,0.299 6,6 0 0 1 -0.9,0.0679 h -1.6 a 6,6 0 0 1 -0.9,-0.0679 11.3333,11.3333 0 0 1 -1.3822,-0.299 2,2 0 0 0 -2.5285,1.6766 l -0.4018,3.2143 a 6,6 0 0 1 -4.0928,4.9599 32.583,32.583 0 0 0 -5.54539963,2.3983 l -1.27329997,0.7351 a 32.583,32.583 0 0 0 -4.8496997,3.6033997 6,6 0 0 1 -6.3417997,1.0645 l -2.9846,-1.2592 a 2,2 0 0 0 -2.7162,1.3514 11.3333,11.3333 0 0 1 -0.4322,1.3465 6,6 0 0 1 -0.3912,0.8134 l -0.8,1.3855997 a 6,6 0 0 1 -0.5088,0.7455 11.3333,11.3333 0 0 1 -0.95,1.0476 2,2 0 0 0 0.1877,3.0279997 l 2.5828,1.9551 a 6,6 0 0 1 2.249,6.0245 32.583,32.583 0 0 0 -0.6957,6.0014999 v 1.4704 a 32.583,32.583 0 0 0 0.6957,6.001501 6,6 0 0 1 -2.249,6.0245 l -2.5828,1.9551 a 2,2 0 0 0 -0.1877,3.028 11.3333,11.3333 0 0 1 0.95,1.0476 6,6 0 0 1 0.5088,0.7455 l 0.8,1.3856 a 6,6 0 0 1 0.3912,0.8134 11.3333,11.3333 0 0 1 0.4322,1.3465 2,2 0 0 0 2.7162,1.3514 l 2.9846,-1.2592 a 6,6 0 0 1 6.3417997,1.0645 32.583,32.583 0 0 0 4.8496997,3.6034 l 1.27329997,0.7351 a 32.583,32.583 0 0 0 5.54539963,2.3983 6,6 0 0 1 4.0928,4.9599 l 0.4018,3.2143 a 2,2 0 0 0 2.5285,1.6766 11.3333,11.3333 0 0 1 1.3822,-0.299 6,6 0 0 1 0.9,-0.0679 h 1.6 a 6,6 0 0 1 0.9,0.0679 11.3333,11.3333 0 0 1 1.3822,0.299 2,2 0 0 0 2.528501,-1.6766 l 0.4018,-3.2143 a 6,6 0 0 1 4.0928,-4.9599 32.583,32.583 0 0 0 5.5454,-2.3983 l 1.2733,-0.7351 a 32.583,32.583 0 0 0 4.8497,-3.6034 6,6 0 0 1 6.3418,-1.0645 l 2.9846,1.2592 a 2,2 0 0 0 2.7162,-1.3514 11.3333,11.3333 0 0 1 0.4322,-1.3465 6,6 0 0 1 0.3912,-0.8134 l 0.8,-1.3856 a 6,6 0 0 1 0.5088,-0.7455 11.3333,11.3333 0 0 1 0.95,-1.0476 2,2 0 0 0 -0.1877,-3.028 l -2.5828,-1.9551 a 6,6 0 0 1 -2.249,-6.0245 32.583,32.583 0 0 0 0.6957,-6.001501 v -1.4704 a 32.583,32.583 0 0 0 -0.6957,-6.0014999 6,6 0 0 1 2.249,-6.0245 l 2.5828,-1.9551 a 2,2 0 0 0 0.1877,-3.0279997 11.3333,11.3333 0 0 1 -0.95,-1.0476 6,6 0 0 1 -0.5088,-0.7455 l -0.8,-1.3855997 a 6,6 0 0 1 -0.3912,-0.8134 11.3333,11.3333 0 0 1 -0.4322,-1.3465 2,2 0 0 0 -2.7162,-1.3514 l -2.9846,1.2592 a 6,6 0 0 1 -6.3418,-1.0645 32.583,32.583 0 0 0 -4.8497,-3.6033997 l -1.2733,-0.7351 a 32.583,32.583 0 0 0 -5.5454,-2.3983 6,6 0 0 1 -4.0928,-4.9599 l -0.4018,-3.2143 a 2,2 0 0 0 -2.528501,-1.6766"
     style="fill:#000000;stroke:none;stroke-width:0.25"
     id="path2" />
</svg>
